# xmcd
#
# Track frame offsets: 
#        150
#        23961
#        53827
#        74640
#        90215
#        106557
#        127048
#        147068
#        169478
#        187479
#        210397
#        227689
#        250901
#
# Disc length: 3476 seconds
#
# Revision: 4
# Processed by: cddbd v1.5.2PL0 Copyright (c) Steve Scherf et al.
# Submitted via: ExactAudioCopy v0.95a3
#
DISCID=b70d920d
DTITLE=Blues Caravan Aynsley Lister, Erja Lyytinen, Ian Parker - Pilgr
DTITLE=image Mississippi to Memphis -Ruf Records -REX
DYEAR=2006
DGENRE=Blues
TTITLE0=1010° - Aynsley Lister
TTITLE1=All The Time - Ian Parker
TTITLE2=Heal Me Love - Ian Parker
TTITLE3=Last Love Song - Erja Lyytinen
TTITLE4=You Don't Know - Luther Allison, James Solberg
TTITLE5=To Much To Hide - Ian Parker
TTITLE6=Mississippi Lawnmower Blues - Aynsley Lister
TTITLE7=Blues Caravan - Aynsley Lister, Erja Lyytinen, Ian Parker
TTITLE8=Funky Mama, Erja Lyytinen
TTITLE9=Dreamland Blues, Erja Lyytinen
TTITLE10=Twinkle Toes Willie - Aynsley Lister
TTITLE11=Time Bares Witness - Ian Parker
TTITLE12=Jam with Mister Tater, The Music Maker - Bonus -Aynsley Liste
TTITLE12=r, Ian Parker
EXTD=
EXTT0=
EXTT1=
EXTT2=
EXTT3=
EXTT4=
EXTT5=
EXTT6=
EXTT7=
EXTT8=
EXTT9=
EXTT10=
EXTT11=
EXTT12=
PLAYORDER=
